<mxfile host="Electron" agent="Mozilla/5.0 (Windows NT 10.0; Win64; x64) AppleWebKit/537.36 (KHTML, like Gecko) draw.io/24.7.17 Chrome/128.0.6613.36 Electron/32.0.1 Safari/537.36" version="24.7.17">
  <diagram name="Страница — 1" id="v3sY-C4QlsBwndGQHorU">
    <mxGraphModel dx="2736" dy="1144" grid="1" gridSize="10" guides="1" tooltips="1" connect="1" arrows="1" fold="1" page="1" pageScale="1" pageWidth="827" pageHeight="1169" math="0" shadow="0">
      <root>
        <mxCell id="0" />
        <mxCell id="1" parent="0" />
        <mxCell id="V4r1PKLEiV15zW5VKzGc-1" value="" style="shape=parallelogram;html=1;strokeWidth=2;perimeter=parallelogramPerimeter;whiteSpace=wrap;rounded=1;arcSize=0;size=0.23;resizable=0;" vertex="1" parent="1">
          <mxGeometry x="-770" y="120" width="120" height="60" as="geometry" />
        </mxCell>
        <mxCell id="V4r1PKLEiV15zW5VKzGc-2" value="" style="verticalLabelPosition=middle;verticalAlign=middle;html=1;shape=process;whiteSpace=wrap;rounded=1;size=0.125;arcSize=6;strokeColor=default;strokeWidth=2;align=center;fontFamily=Helvetica;fontSize=12;fontColor=default;fillColor=default;labelPadding=0;noLabel=0;recursiveResize=1;expand=1;movable=1;resizable=0;linejoin=round;perimeter=none;portConstraint=none;labelPosition=center;" vertex="1" parent="1">
          <mxGeometry x="-760" y="220" width="120" height="60" as="geometry" />
        </mxCell>
        <mxCell id="V4r1PKLEiV15zW5VKzGc-3" value="" style="rounded=0;whiteSpace=wrap;html=1;strokeColor=default;strokeWidth=2;align=center;verticalAlign=middle;fontFamily=Helvetica;fontSize=12;fontColor=default;fillColor=default;resizable=0;" vertex="1" parent="1">
          <mxGeometry x="-780" y="500" width="120" height="60" as="geometry" />
        </mxCell>
        <mxCell id="V4r1PKLEiV15zW5VKzGc-4" value="" style="verticalLabelPosition=middle;verticalAlign=middle;html=1;shape=hexagon;perimeter=hexagonPerimeter2;arcSize=6;size=0.27;strokeColor=default;strokeWidth=2;align=center;fontFamily=Helvetica;fontSize=12;fontColor=default;fillColor=default;resizable=0;labelPosition=center;" vertex="1" parent="1">
          <mxGeometry x="-770" y="300" width="120" height="60" as="geometry" />
        </mxCell>
        <mxCell id="V4r1PKLEiV15zW5VKzGc-5" value="Начало" style="strokeWidth=2;html=1;shape=mxgraph.flowchart.terminator;whiteSpace=wrap;aspect=fixed;fillOpacity=100;perimeter=rectanglePerimeter;fixedWidth=0;noLabel=0;labelPadding=0;resizable=0;" vertex="1" parent="1">
          <mxGeometry x="-770" y="40" width="120" height="60" as="geometry" />
        </mxCell>
        <mxCell id="V4r1PKLEiV15zW5VKzGc-6" value="Конец" style="strokeWidth=2;html=1;shape=mxgraph.flowchart.terminator;whiteSpace=wrap;aspect=fixed;fillOpacity=100;perimeter=rectanglePerimeter;fixedWidth=0;noLabel=0;labelPadding=0;resizable=0;" vertex="1" parent="1">
          <mxGeometry x="-800" y="690" width="120" height="60" as="geometry" />
        </mxCell>
        <mxCell id="V4r1PKLEiV15zW5VKzGc-7" value="&lt;div style=&quot;text-align: center; color: rgb(204, 204, 204); background-color: rgb(31, 31, 31); font-family: Consolas, &amp;quot;Courier New&amp;quot;, monospace; font-size: 14px; line-height: 19px; white-space-collapse: preserve;&quot;&gt;&lt;div style=&quot;line-height: 19px;&quot;&gt;&lt;br&gt;&lt;/div&gt;&lt;/div&gt;" style="strokeWidth=2;html=1;shape=mxgraph.flowchart.annotation_2;align=left;labelPosition=right;pointerEvents=1;strokeColor=default;verticalAlign=middle;fontFamily=Helvetica;fontSize=12;fontColor=default;fillColor=default;resizable=1;" vertex="1" parent="1">
          <mxGeometry x="-770" y="585" width="50" height="60" as="geometry" />
        </mxCell>
        <mxCell id="V4r1PKLEiV15zW5VKzGc-8" value="" style="strokeWidth=2;html=1;shape=mxgraph.flowchart.decision;whiteSpace=wrap;strokeColor=default;align=center;verticalAlign=middle;fontFamily=Helvetica;fontSize=12;fontColor=default;fillColor=default;resizable=0;" vertex="1" parent="1">
          <mxGeometry x="-770" y="400" width="120" height="60" as="geometry" />
        </mxCell>
      </root>
    </mxGraphModel>
  </diagram>
</mxfile>
